<mxfile host="app.diagrams.net" modified="2023-07-14T08:46:21.828Z" agent="Mozilla/5.0 (X11; Ubuntu; Linux x86_64; rv:109.0) Gecko/20100101 Firefox/114.0" etag="irgao1l9CqG9qJuCKUPg" version="21.6.2" type="device">
  <diagram name="Page-1" id="qb_ZtY5n5JlM0fx14WMn">
    <mxGraphModel dx="1052" dy="597" grid="1" gridSize="10" guides="1" tooltips="1" connect="1" arrows="1" fold="1" page="1" pageScale="1" pageWidth="850" pageHeight="1100" math="0" shadow="0">
      <root>
        <mxCell id="0" />
        <mxCell id="1" parent="0" />
        <mxCell id="Rub7pcg7X3PBs07Vx_1k-1" value="&lt;div style=&quot;font-size: 14px;&quot;&gt;Spring Cloud Config Server&lt;br style=&quot;font-size: 14px;&quot;&gt;&lt;/div&gt;(config.server:8888)" style="rounded=0;whiteSpace=wrap;html=1;fontSize=14;" parent="1" vertex="1">
          <mxGeometry x="305" y="170" width="230" height="160" as="geometry" />
        </mxCell>
        <mxCell id="Rub7pcg7X3PBs07Vx_1k-2" value="Spring Cloud Bus" style="rounded=0;whiteSpace=wrap;html=1;fontSize=14;" parent="1" vertex="1">
          <mxGeometry x="365" y="280" width="110" height="40" as="geometry" />
        </mxCell>
        <mxCell id="Rub7pcg7X3PBs07Vx_1k-3" value="Spring Service 1&lt;br&gt;(local.service:8080)" style="rounded=0;whiteSpace=wrap;html=1;fontSize=14;" parent="1" vertex="1">
          <mxGeometry x="170" y="440" width="135" height="60" as="geometry" />
        </mxCell>
        <mxCell id="Rub7pcg7X3PBs07Vx_1k-4" value="Spring Service 2&lt;br&gt;(local.service:8081)" style="rounded=0;whiteSpace=wrap;html=1;fontSize=14;" parent="1" vertex="1">
          <mxGeometry x="345" y="440" width="150" height="60" as="geometry" />
        </mxCell>
        <mxCell id="Rub7pcg7X3PBs07Vx_1k-5" value="Spring Service 3&lt;br&gt;(local.service:8082)" style="rounded=0;whiteSpace=wrap;html=1;fontSize=14;" parent="1" vertex="1">
          <mxGeometry x="535" y="440" width="145" height="60" as="geometry" />
        </mxCell>
        <mxCell id="Rub7pcg7X3PBs07Vx_1k-8" value="" style="endArrow=classic;html=1;rounded=0;entryX=0.5;entryY=0;entryDx=0;entryDy=0;exitX=0.5;exitY=1;exitDx=0;exitDy=0;fontSize=14;" parent="1" source="Rub7pcg7X3PBs07Vx_1k-2" target="Rub7pcg7X3PBs07Vx_1k-4" edge="1">
          <mxGeometry width="50" height="50" relative="1" as="geometry">
            <mxPoint x="400" y="440" as="sourcePoint" />
            <mxPoint x="450" y="390" as="targetPoint" />
          </mxGeometry>
        </mxCell>
        <mxCell id="Rub7pcg7X3PBs07Vx_1k-13" value="..." style="edgeLabel;html=1;align=center;verticalAlign=middle;resizable=0;points=[];fontSize=14;" parent="Rub7pcg7X3PBs07Vx_1k-8" vertex="1" connectable="0">
          <mxGeometry x="-0.2333" y="-3" relative="1" as="geometry">
            <mxPoint x="3" y="14" as="offset" />
          </mxGeometry>
        </mxCell>
        <mxCell id="Rub7pcg7X3PBs07Vx_1k-9" value="&lt;div style=&quot;font-size: 14px;&quot;&gt;Git-Repository&lt;/div&gt;&lt;div style=&quot;font-size: 14px;&quot;&gt;(EnthÃ¤lt Konfigurationen)&lt;br style=&quot;font-size: 14px;&quot;&gt;&lt;/div&gt;" style="shape=cylinder3;whiteSpace=wrap;html=1;boundedLbl=1;backgroundOutline=1;size=15;fontSize=14;" parent="1" vertex="1">
          <mxGeometry x="640" y="180" width="110" height="140" as="geometry" />
        </mxCell>
        <mxCell id="Rub7pcg7X3PBs07Vx_1k-10" value="" style="endArrow=none;html=1;rounded=0;entryX=0;entryY=0.5;entryDx=0;entryDy=0;entryPerimeter=0;exitX=1;exitY=0.5;exitDx=0;exitDy=0;fontSize=14;" parent="1" source="Rub7pcg7X3PBs07Vx_1k-1" target="Rub7pcg7X3PBs07Vx_1k-9" edge="1">
          <mxGeometry width="50" height="50" relative="1" as="geometry">
            <mxPoint x="400" y="440" as="sourcePoint" />
            <mxPoint x="450" y="390" as="targetPoint" />
          </mxGeometry>
        </mxCell>
        <mxCell id="Rub7pcg7X3PBs07Vx_1k-11" value="" style="endArrow=classic;html=1;rounded=0;entryX=0.5;entryY=0;entryDx=0;entryDy=0;exitX=0.25;exitY=1;exitDx=0;exitDy=0;fontSize=14;" parent="1" source="Rub7pcg7X3PBs07Vx_1k-2" target="Rub7pcg7X3PBs07Vx_1k-3" edge="1">
          <mxGeometry width="50" height="50" relative="1" as="geometry">
            <mxPoint x="400" y="440" as="sourcePoint" />
            <mxPoint x="450" y="390" as="targetPoint" />
          </mxGeometry>
        </mxCell>
        <mxCell id="Rub7pcg7X3PBs07Vx_1k-15" value="&lt;div style=&quot;font-size: 14px;&quot;&gt;Dynamische&lt;/div&gt;&lt;div style=&quot;font-size: 14px;&quot;&gt;Konfigurations-&lt;/div&gt;&lt;div style=&quot;font-size: 14px;&quot;&gt;aktualisierung&lt;br style=&quot;font-size: 14px;&quot;&gt;&lt;/div&gt;" style="edgeLabel;html=1;align=center;verticalAlign=middle;resizable=0;points=[];" parent="Rub7pcg7X3PBs07Vx_1k-11" vertex="1" connectable="0">
          <mxGeometry x="0.0617" y="-3" relative="1" as="geometry">
            <mxPoint as="offset" />
          </mxGeometry>
        </mxCell>
        <mxCell id="Rub7pcg7X3PBs07Vx_1k-12" value="" style="endArrow=classic;html=1;rounded=0;entryX=0.5;entryY=0;entryDx=0;entryDy=0;exitX=0.89;exitY=0.933;exitDx=0;exitDy=0;exitPerimeter=0;fontSize=14;" parent="1" source="Rub7pcg7X3PBs07Vx_1k-2" target="Rub7pcg7X3PBs07Vx_1k-5" edge="1">
          <mxGeometry width="50" height="50" relative="1" as="geometry">
            <mxPoint x="400" y="440" as="sourcePoint" />
            <mxPoint x="450" y="390" as="targetPoint" />
          </mxGeometry>
        </mxCell>
        <mxCell id="Rub7pcg7X3PBs07Vx_1k-14" value="..." style="edgeLabel;html=1;align=center;verticalAlign=middle;resizable=0;points=[];" parent="Rub7pcg7X3PBs07Vx_1k-12" vertex="1" connectable="0">
          <mxGeometry x="-0.069" y="-4" relative="1" as="geometry">
            <mxPoint as="offset" />
          </mxGeometry>
        </mxCell>
      </root>
    </mxGraphModel>
  </diagram>
</mxfile>
